<svg width="1728" height="221" viewBox="0 0 1728 221" fill="none" xmlns="http://www.w3.org/2000/svg">
<g clip-path="url(#clip0_1_2)">
<mask id="path-1-outside-1_1_2" maskUnits="userSpaceOnUse" x="333" y="1" width="433" height="81" fill="black">
<rect fill="white" x="333" y="1" width="433" height="81"/>
<path d="M335 80V3H401V14H412V36H401V47H412V69H401V80H335ZM357 36H390V14H357V36ZM357 69H390V47H357V69ZM434 80V69H423V3H445V69H478V3H500V69H489V80H434ZM522 80V69H544V14H522V3H588V14H566V69H588V80H522ZM610 80V3H632V69H676V80H610ZM687 80V3H742V14H753V25H764V58H753V69H742V80H687ZM709 69H731V58H742V25H731V14H709V69Z"/>
</mask>
<path d="M335 80H333V82H335V80ZM335 3V1H333V3H335ZM401 3H403V1H401V3ZM401 14H399V16H401V14ZM412 14H414V12H412V14ZM412 36V38H414V36H412ZM401 36V34H399V36H401ZM401 47H399V49H401V47ZM412 47H414V45H412V47ZM412 69V71H414V69H412ZM401 69V67H399V69H401ZM401 80V82H403V80H401ZM357 36H355V38H357V36ZM390 36V38H392V36H390ZM390 14H392V12H390V14ZM357 14V12H355V14H357ZM357 69H355V71H357V69ZM390 69V71H392V69H390ZM390 47H392V45H390V47ZM357 47V45H355V47H357ZM335 80H337V3H335H333V80H335ZM335 3V5H401V3V1H335V3ZM401 3H399V14H401H403V3H401ZM401 14V16H412V14V12H401V14ZM412 14H410V36H412H414V14H412ZM412 36V34H401V36V38H412V36ZM401 36H399V47H401H403V36H401ZM401 47V49H412V47V45H401V47ZM412 47H410V69H412H414V47H412ZM412 69V67H401V69V71H412V69ZM401 69H399V80H401H403V69H401ZM401 80V78H335V80V82H401V80ZM357 36V38H390V36V34H357V36ZM390 36H392V14H390H388V36H390ZM390 14V12H357V14V16H390V14ZM357 14H355V36H357H359V14H357ZM357 69V71H390V69V67H357V69ZM390 69H392V47H390H388V69H390ZM390 47V45H357V47V49H390V47ZM357 47H355V69H357H359V47H357ZM434 80H432V82H434V80ZM434 69H436V67H434V69ZM423 69H421V71H423V69ZM423 3V1H421V3H423ZM445 3H447V1H445V3ZM445 69H443V71H445V69ZM478 69V71H480V69H478ZM478 3V1H476V3H478ZM500 3H502V1H500V3ZM500 69V71H502V69H500ZM489 69V67H487V69H489ZM489 80V82H491V80H489ZM434 80H436V69H434H432V80H434ZM434 69V67H423V69V71H434V69ZM423 69H425V3H423H421V69H423ZM423 3V5H445V3V1H423V3ZM445 3H443V69H445H447V3H445ZM445 69V71H478V69V67H445V69ZM478 69H480V3H478H476V69H478ZM478 3V5H500V3V1H478V3ZM500 3H498V69H500H502V3H500ZM500 69V67H489V69V71H500V69ZM489 69H487V80H489H491V69H489ZM489 80V78H434V80V82H489V80ZM522 80H520V82H522V80ZM522 69V67H520V69H522ZM544 69V71H546V69H544ZM544 14H546V12H544V14ZM522 14H520V16H522V14ZM522 3V1H520V3H522ZM588 3H590V1H588V3ZM588 14V16H590V14H588ZM566 14V12H564V14H566ZM566 69H564V71H566V69ZM588 69H590V67H588V69ZM588 80V82H590V80H588ZM522 80H524V69H522H520V80H522ZM522 69V71H544V69V67H522V69ZM544 69H546V14H544H542V69H544ZM544 14V12H522V14V16H544V14ZM522 14H524V3H522H520V14H522ZM522 3V5H588V3V1H522V3ZM588 3H586V14H588H590V3H588ZM588 14V12H566V14V16H588V14ZM566 14H564V69H566H568V14H566ZM566 69V71H588V69V67H566V69ZM588 69H586V80H588H590V69H588ZM588 80V78H522V80V82H588V80ZM610 80H608V82H610V80ZM610 3V1H608V3H610ZM632 3H634V1H632V3ZM632 69H630V71H632V69ZM676 69H678V67H676V69ZM676 80V82H678V80H676ZM610 80H612V3H610H608V80H610ZM610 3V5H632V3V1H610V3ZM632 3H630V69H632H634V3H632ZM632 69V71H676V69V67H632V69ZM676 69H674V80H676H678V69H676ZM676 80V78H610V80V82H676V80ZM687 80H685V82H687V80ZM687 3V1H685V3H687ZM742 3H744V1H742V3ZM742 14H740V16H742V14ZM753 14H755V12H753V14ZM753 25H751V27H753V25ZM764 25H766V23H764V25ZM764 58V60H766V58H764ZM753 58V56H751V58H753ZM753 69V71H755V69H753ZM742 69V67H740V69H742ZM742 80V82H744V80H742ZM709 69H707V71H709V69ZM731 69V71H733V69H731ZM731 58V56H729V58H731ZM742 58V60H744V58H742ZM742 25H744V23H742V25ZM731 25H729V27H731V25ZM731 14H733V12H731V14ZM709 14V12H707V14H709ZM687 80H689V3H687H685V80H687ZM687 3V5H742V3V1H687V3ZM742 3H740V14H742H744V3H742ZM742 14V16H753V14V12H742V14ZM753 14H751V25H753H755V14H753ZM753 25V27H764V25V23H753V25ZM764 25H762V58H764H766V25H764ZM764 58V56H753V58V60H764V58ZM753 58H751V69H753H755V58H753ZM753 69V67H742V69V71H753V69ZM742 69H740V80H742H744V69H742ZM742 80V78H687V80V82H742V80ZM709 69V71H731V69V67H709V69ZM731 69H733V58H731H729V69H731ZM731 58V60H742V58V56H731V58ZM742 58H744V25H742H740V58H742ZM742 25V23H731V25V27H742V25ZM731 25H733V14H731H729V25H731ZM731 14V12H709V14V16H731V14ZM709 14H707V69H709H711V14H709Z" fill="white" mask="url(#path-1-outside-1_1_2)"/>
<mask id="path-3-outside-2_1_2" maskUnits="userSpaceOnUse" x="808" y="1" width="257" height="81" fill="black">
<rect fill="white" x="808" y="1" width="257" height="81"/>
<path d="M810 80V3H887V14H832V36H876V47H832V80H810ZM909 80V69H898V14H909V3H964V14H975V69H964V80H909ZM920 69H953V14H920V69ZM986 80V3H1052V14H1063V47H1041V58H1052V69H1063V80H1030V69H1019V58H1008V80H986ZM1008 47H1030V36H1041V14H1008V47Z"/>
</mask>
<path d="M810 80H808V82H810V80ZM810 3V1H808V3H810ZM887 3H889V1H887V3ZM887 14V16H889V14H887ZM832 14V12H830V14H832ZM832 36H830V38H832V36ZM876 36H878V34H876V36ZM876 47V49H878V47H876ZM832 47V45H830V47H832ZM832 80V82H834V80H832ZM810 80H812V3H810H808V80H810ZM810 3V5H887V3V1H810V3ZM887 3H885V14H887H889V3H887ZM887 14V12H832V14V16H887V14ZM832 14H830V36H832H834V14H832ZM832 36V38H876V36V34H832V36ZM876 36H874V47H876H878V36H876ZM876 47V45H832V47V49H876V47ZM832 47H830V80H832H834V47H832ZM832 80V78H810V80V82H832V80ZM909 80H907V82H909V80ZM909 69H911V67H909V69ZM898 69H896V71H898V69ZM898 14V12H896V14H898ZM909 14V16H911V14H909ZM909 3V1H907V3H909ZM964 3H966V1H964V3ZM964 14H962V16H964V14ZM975 14H977V12H975V14ZM975 69V71H977V69H975ZM964 69V67H962V69H964ZM964 80V82H966V80H964ZM920 69H918V71H920V69ZM953 69V71H955V69H953ZM953 14H955V12H953V14ZM920 14V12H918V14H920ZM909 80H911V69H909H907V80H909ZM909 69V67H898V69V71H909V69ZM898 69H900V14H898H896V69H898ZM898 14V16H909V14V12H898V14ZM909 14H911V3H909H907V14H909ZM909 3V5H964V3V1H909V3ZM964 3H962V14H964H966V3H964ZM964 14V16H975V14V12H964V14ZM975 14H973V69H975H977V14H975ZM975 69V67H964V69V71H975V69ZM964 69H962V80H964H966V69H964ZM964 80V78H909V80V82H964V80ZM920 69V71H953V69V67H920V69ZM953 69H955V14H953H951V69H953ZM953 14V12H920V14V16H953V14ZM920 14H918V69H920H922V14H920ZM986 80H984V82H986V80ZM986 3V1H984V3H986ZM1052 3H1054V1H1052V3ZM1052 14H1050V16H1052V14ZM1063 14H1065V12H1063V14ZM1063 47V49H1065V47H1063ZM1041 47V45H1039V47H1041ZM1041 58H1039V60H1041V58ZM1052 58H1054V56H1052V58ZM1052 69H1050V71H1052V69ZM1063 69H1065V67H1063V69ZM1063 80V82H1065V80H1063ZM1030 80H1028V82H1030V80ZM1030 69H1032V67H1030V69ZM1019 69H1017V71H1019V69ZM1019 58H1021V56H1019V58ZM1008 58V56H1006V58H1008ZM1008 80V82H1010V80H1008ZM1008 47H1006V49H1008V47ZM1030 47V49H1032V47H1030ZM1030 36V34H1028V36H1030ZM1041 36V38H1043V36H1041ZM1041 14H1043V12H1041V14ZM1008 14V12H1006V14H1008ZM986 80H988V3H986H984V80H986ZM986 3V5H1052V3V1H986V3ZM1052 3H1050V14H1052H1054V3H1052ZM1052 14V16H1063V14V12H1052V14ZM1063 14H1061V47H1063H1065V14H1063ZM1063 47V45H1041V47V49H1063V47ZM1041 47H1039V58H1041H1043V47H1041ZM1041 58V60H1052V58V56H1041V58ZM1052 58H1050V69H1052H1054V58H1052ZM1052 69V71H1063V69V67H1052V69ZM1063 69H1061V80H1063H1065V69H1063ZM1063 80V78H1030V80V82H1063V80ZM1030 80H1032V69H1030H1028V80H1030ZM1030 69V67H1019V69V71H1030V69ZM1019 69H1021V58H1019H1017V69H1019ZM1019 58V56H1008V58V60H1019V58ZM1008 58H1006V80H1008H1010V58H1008ZM1008 80V78H986V80V82H1008V80ZM1008 47V49H1030V47V45H1008V47ZM1030 47H1032V36H1030H1028V47H1030ZM1030 36V38H1041V36V34H1030V36ZM1041 36H1043V14H1041H1039V36H1041ZM1041 14V12H1008V14V16H1041V14ZM1008 14H1006V47H1008H1010V14H1008Z" fill="white" mask="url(#path-3-outside-2_1_2)"/>
<mask id="path-5-outside-3_1_2" maskUnits="userSpaceOnUse" x="1107" y="1" width="521" height="81" fill="black">
<rect fill="white" x="1107" y="1" width="521" height="81"/>
<path d="M1109 80V3H1175V14H1186V36H1175V47H1186V69H1175V80H1109ZM1131 36H1164V14H1131V36ZM1131 69H1164V47H1131V69ZM1197 80V3H1274V14H1219V36H1263V47H1219V69H1274V80H1197ZM1318 80V14H1296V3H1362V14H1340V80H1318ZM1406 80V14H1384V3H1450V14H1428V80H1406ZM1461 80V3H1538V14H1483V36H1527V47H1483V69H1538V80H1461ZM1549 80V3H1615V14H1626V47H1604V58H1615V69H1626V80H1593V69H1582V58H1571V80H1549ZM1571 47H1593V36H1604V14H1571V47Z"/>
</mask>
<path d="M1109 80H1107V82H1109V80ZM1109 3V1H1107V3H1109ZM1175 3H1177V1H1175V3ZM1175 14H1173V16H1175V14ZM1186 14H1188V12H1186V14ZM1186 36V38H1188V36H1186ZM1175 36V34H1173V36H1175ZM1175 47H1173V49H1175V47ZM1186 47H1188V45H1186V47ZM1186 69V71H1188V69H1186ZM1175 69V67H1173V69H1175ZM1175 80V82H1177V80H1175ZM1131 36H1129V38H1131V36ZM1164 36V38H1166V36H1164ZM1164 14H1166V12H1164V14ZM1131 14V12H1129V14H1131ZM1131 69H1129V71H1131V69ZM1164 69V71H1166V69H1164ZM1164 47H1166V45H1164V47ZM1131 47V45H1129V47H1131ZM1109 80H1111V3H1109H1107V80H1109ZM1109 3V5H1175V3V1H1109V3ZM1175 3H1173V14H1175H1177V3H1175ZM1175 14V16H1186V14V12H1175V14ZM1186 14H1184V36H1186H1188V14H1186ZM1186 36V34H1175V36V38H1186V36ZM1175 36H1173V47H1175H1177V36H1175ZM1175 47V49H1186V47V45H1175V47ZM1186 47H1184V69H1186H1188V47H1186ZM1186 69V67H1175V69V71H1186V69ZM1175 69H1173V80H1175H1177V69H1175ZM1175 80V78H1109V80V82H1175V80ZM1131 36V38H1164V36V34H1131V36ZM1164 36H1166V14H1164H1162V36H1164ZM1164 14V12H1131V14V16H1164V14ZM1131 14H1129V36H1131H1133V14H1131ZM1131 69V71H1164V69V67H1131V69ZM1164 69H1166V47H1164H1162V69H1164ZM1164 47V45H1131V47V49H1164V47ZM1131 47H1129V69H1131H1133V47H1131ZM1197 80H1195V82H1197V80ZM1197 3V1H1195V3H1197ZM1274 3H1276V1H1274V3ZM1274 14V16H1276V14H1274ZM1219 14V12H1217V14H1219ZM1219 36H1217V38H1219V36ZM1263 36H1265V34H1263V36ZM1263 47V49H1265V47H1263ZM1219 47V45H1217V47H1219ZM1219 69H1217V71H1219V69ZM1274 69H1276V67H1274V69ZM1274 80V82H1276V80H1274ZM1197 80H1199V3H1197H1195V80H1197ZM1197 3V5H1274V3V1H1197V3ZM1274 3H1272V14H1274H1276V3H1274ZM1274 14V12H1219V14V16H1274V14ZM1219 14H1217V36H1219H1221V14H1219ZM1219 36V38H1263V36V34H1219V36ZM1263 36H1261V47H1263H1265V36H1263ZM1263 47V45H1219V47V49H1263V47ZM1219 47H1217V69H1219H1221V47H1219ZM1219 69V71H1274V69V67H1219V69ZM1274 69H1272V80H1274H1276V69H1274ZM1274 80V78H1197V80V82H1274V80ZM1318 80H1316V82H1318V80ZM1318 14H1320V12H1318V14ZM1296 14H1294V16H1296V14ZM1296 3V1H1294V3H1296ZM1362 3H1364V1H1362V3ZM1362 14V16H1364V14H1362ZM1340 14V12H1338V14H1340ZM1340 80V82H1342V80H1340ZM1318 80H1320V14H1318H1316V80H1318ZM1318 14V12H1296V14V16H1318V14ZM1296 14H1298V3H1296H1294V14H1296ZM1296 3V5H1362V3V1H1296V3ZM1362 3H1360V14H1362H1364V3H1362ZM1362 14V12H1340V14V16H1362V14ZM1340 14H1338V80H1340H1342V14H1340ZM1340 80V78H1318V80V82H1340V80ZM1406 80H1404V82H1406V80ZM1406 14H1408V12H1406V14ZM1384 14H1382V16H1384V14ZM1384 3V1H1382V3H1384ZM1450 3H1452V1H1450V3ZM1450 14V16H1452V14H1450ZM1428 14V12H1426V14H1428ZM1428 80V82H1430V80H1428ZM1406 80H1408V14H1406H1404V80H1406ZM1406 14V12H1384V14V16H1406V14ZM1384 14H1386V3H1384H1382V14H1384ZM1384 3V5H1450V3V1H1384V3ZM1450 3H1448V14H1450H1452V3H1450ZM1450 14V12H1428V14V16H1450V14ZM1428 14H1426V80H1428H1430V14H1428ZM1428 80V78H1406V80V82H1428V80ZM1461 80H1459V82H1461V80ZM1461 3V1H1459V3H1461ZM1538 3H1540V1H1538V3ZM1538 14V16H1540V14H1538ZM1483 14V12H1481V14H1483ZM1483 36H1481V38H1483V36ZM1527 36H1529V34H1527V36ZM1527 47V49H1529V47H1527ZM1483 47V45H1481V47H1483ZM1483 69H1481V71H1483V69ZM1538 69H1540V67H1538V69ZM1538 80V82H1540V80H1538ZM1461 80H1463V3H1461H1459V80H1461ZM1461 3V5H1538V3V1H1461V3ZM1538 3H1536V14H1538H1540V3H1538ZM1538 14V12H1483V14V16H1538V14ZM1483 14H1481V36H1483H1485V14H1483ZM1483 36V38H1527V36V34H1483V36ZM1527 36H1525V47H1527H1529V36H1527ZM1527 47V45H1483V47V49H1527V47ZM1483 47H1481V69H1483H1485V47H1483ZM1483 69V71H1538V69V67H1483V69ZM1538 69H1536V80H1538H1540V69H1538ZM1538 80V78H1461V80V82H1538V80ZM1549 80H1547V82H1549V80ZM1549 3V1H1547V3H1549ZM1615 3H1617V1H1615V3ZM1615 14H1613V16H1615V14ZM1626 14H1628V12H1626V14ZM1626 47V49H1628V47H1626ZM1604 47V45H1602V47H1604ZM1604 58H1602V60H1604V58ZM1615 58H1617V56H1615V58ZM1615 69H1613V71H1615V69ZM1626 69H1628V67H1626V69ZM1626 80V82H1628V80H1626ZM1593 80H1591V82H1593V80ZM1593 69H1595V67H1593V69ZM1582 69H1580V71H1582V69ZM1582 58H1584V56H1582V58ZM1571 58V56H1569V58H1571ZM1571 80V82H1573V80H1571ZM1571 47H1569V49H1571V47ZM1593 47V49H1595V47H1593ZM1593 36V34H1591V36H1593ZM1604 36V38H1606V36H1604ZM1604 14H1606V12H1604V14ZM1571 14V12H1569V14H1571ZM1549 80H1551V3H1549H1547V80H1549ZM1549 3V5H1615V3V1H1549V3ZM1615 3H1613V14H1615H1617V3H1615ZM1615 14V16H1626V14V12H1615V14ZM1626 14H1624V47H1626H1628V14H1626ZM1626 47V45H1604V47V49H1626V47ZM1604 47H1602V58H1604H1606V47H1604ZM1604 58V60H1615V58V56H1604V58ZM1615 58H1613V69H1615H1617V58H1615ZM1615 69V71H1626V69V67H1615V69ZM1626 69H1624V80H1626H1628V69H1626ZM1626 80V78H1593V80V82H1626V80ZM1593 80H1595V69H1593H1591V80H1593ZM1593 69V67H1582V69V71H1593V69ZM1582 69H1584V58H1582H1580V69H1582ZM1582 58V56H1571V58V60H1582V58ZM1571 58H1569V80H1571H1573V58H1571ZM1571 80V78H1549V80V82H1571V80ZM1571 47V49H1593V47V45H1571V47ZM1593 47H1595V36H1593H1591V47H1593ZM1593 36V38H1604V36V34H1593V36ZM1604 36H1606V14H1604H1602V36H1604ZM1604 14V12H1571V14V16H1604V14ZM1571 14H1569V47H1571H1573V14H1571Z" fill="white" mask="url(#path-5-outside-3_1_2)"/>
<path d="M1672 80V3H1738V14H1749V36H1738V47H1749V69H1738V80H1672ZM1694 36H1727V14H1694V36ZM1694 69H1727V47H1694V69ZM1771 80V69H1760V3H1782V69H1815V3H1837V69H1826V80H1771ZM1859 80V69H1881V14H1859V3H1925V14H1903V69H1925V80H1859ZM1947 80V3H1969V69H2013V80H1947ZM2024 80V3H2079V14H2090V25H2101V58H2090V69H2079V80H2024ZM2046 69H2068V58H2079V25H2068V14H2046V69Z" fill="white"/>
<path d="M-1108 80V3H-1042V14H-1031V36H-1042V47H-1031V69H-1042V80H-1108ZM-1086 36H-1053V14H-1086V36ZM-1086 69H-1053V47H-1086V69ZM-1009 80V69H-1020V3H-998V69H-965V3H-943V69H-954V80H-1009ZM-921 80V69H-899V14H-921V3H-855V14H-877V69H-855V80H-921ZM-833 80V3H-811V69H-767V80H-833ZM-756 80V3H-701V14H-690V25H-679V58H-690V69H-701V80H-756ZM-734 69H-712V58H-701V25H-712V14H-734V69ZM-580 80V3H-503V14H-558V36H-514V47H-558V80H-580ZM-481 80V69H-492V14H-481V3H-426V14H-415V69H-426V80H-481ZM-470 69H-437V14H-470V69ZM-404 80V3H-338V14H-327V47H-349V58H-338V69H-327V80H-360V69H-371V58H-382V80H-404ZM-382 47H-360V36H-349V14H-382V47ZM-228 80V3H-162V14H-151V36H-162V47H-151V69H-162V80H-228ZM-206 36H-173V14H-206V36ZM-206 69H-173V47H-206V69ZM-140 80V3H-63V14H-118V36H-74V47H-118V69H-63V80H-140ZM-19 80V14H-41V3H25V14H3V80H-19ZM69 80V14H47V3H113V14H91V80H69ZM124 80V3H201V14H146V36H190V47H146V69H201V80H124ZM212 80V3H278V14H289V47H267V58H278V69H289V80H256V69H245V58H234V80H212ZM234 47H256V36H267V14H234V47Z" fill="white"/>
<mask id="path-9-outside-4_1_2" maskUnits="userSpaceOnUse" x="1403" y="131" width="433" height="81" fill="black">
<rect fill="white" x="1403" y="131" width="433" height="81"/>
<path d="M1405 210V133H1471V144H1482V166H1471V177H1482V199H1471V210H1405ZM1427 166H1460V144H1427V166ZM1427 199H1460V177H1427V199ZM1504 210V199H1493V133H1515V199H1548V133H1570V199H1559V210H1504ZM1592 210V199H1614V144H1592V133H1658V144H1636V199H1658V210H1592ZM1680 210V133H1702V199H1746V210H1680ZM1757 210V133H1812V144H1823V155H1834V188H1823V199H1812V210H1757ZM1779 199H1801V188H1812V155H1801V144H1779V199Z"/>
</mask>
<path d="M1405 210H1403V212H1405V210ZM1405 133V131H1403V133H1405ZM1471 133H1473V131H1471V133ZM1471 144H1469V146H1471V144ZM1482 144H1484V142H1482V144ZM1482 166V168H1484V166H1482ZM1471 166V164H1469V166H1471ZM1471 177H1469V179H1471V177ZM1482 177H1484V175H1482V177ZM1482 199V201H1484V199H1482ZM1471 199V197H1469V199H1471ZM1471 210V212H1473V210H1471ZM1427 166H1425V168H1427V166ZM1460 166V168H1462V166H1460ZM1460 144H1462V142H1460V144ZM1427 144V142H1425V144H1427ZM1427 199H1425V201H1427V199ZM1460 199V201H1462V199H1460ZM1460 177H1462V175H1460V177ZM1427 177V175H1425V177H1427ZM1405 210H1407V133H1405H1403V210H1405ZM1405 133V135H1471V133V131H1405V133ZM1471 133H1469V144H1471H1473V133H1471ZM1471 144V146H1482V144V142H1471V144ZM1482 144H1480V166H1482H1484V144H1482ZM1482 166V164H1471V166V168H1482V166ZM1471 166H1469V177H1471H1473V166H1471ZM1471 177V179H1482V177V175H1471V177ZM1482 177H1480V199H1482H1484V177H1482ZM1482 199V197H1471V199V201H1482V199ZM1471 199H1469V210H1471H1473V199H1471ZM1471 210V208H1405V210V212H1471V210ZM1427 166V168H1460V166V164H1427V166ZM1460 166H1462V144H1460H1458V166H1460ZM1460 144V142H1427V144V146H1460V144ZM1427 144H1425V166H1427H1429V144H1427ZM1427 199V201H1460V199V197H1427V199ZM1460 199H1462V177H1460H1458V199H1460ZM1460 177V175H1427V177V179H1460V177ZM1427 177H1425V199H1427H1429V177H1427ZM1504 210H1502V212H1504V210ZM1504 199H1506V197H1504V199ZM1493 199H1491V201H1493V199ZM1493 133V131H1491V133H1493ZM1515 133H1517V131H1515V133ZM1515 199H1513V201H1515V199ZM1548 199V201H1550V199H1548ZM1548 133V131H1546V133H1548ZM1570 133H1572V131H1570V133ZM1570 199V201H1572V199H1570ZM1559 199V197H1557V199H1559ZM1559 210V212H1561V210H1559ZM1504 210H1506V199H1504H1502V210H1504ZM1504 199V197H1493V199V201H1504V199ZM1493 199H1495V133H1493H1491V199H1493ZM1493 133V135H1515V133V131H1493V133ZM1515 133H1513V199H1515H1517V133H1515ZM1515 199V201H1548V199V197H1515V199ZM1548 199H1550V133H1548H1546V199H1548ZM1548 133V135H1570V133V131H1548V133ZM1570 133H1568V199H1570H1572V133H1570ZM1570 199V197H1559V199V201H1570V199ZM1559 199H1557V210H1559H1561V199H1559ZM1559 210V208H1504V210V212H1559V210ZM1592 210H1590V212H1592V210ZM1592 199V197H1590V199H1592ZM1614 199V201H1616V199H1614ZM1614 144H1616V142H1614V144ZM1592 144H1590V146H1592V144ZM1592 133V131H1590V133H1592ZM1658 133H1660V131H1658V133ZM1658 144V146H1660V144H1658ZM1636 144V142H1634V144H1636ZM1636 199H1634V201H1636V199ZM1658 199H1660V197H1658V199ZM1658 210V212H1660V210H1658ZM1592 210H1594V199H1592H1590V210H1592ZM1592 199V201H1614V199V197H1592V199ZM1614 199H1616V144H1614H1612V199H1614ZM1614 144V142H1592V144V146H1614V144ZM1592 144H1594V133H1592H1590V144H1592ZM1592 133V135H1658V133V131H1592V133ZM1658 133H1656V144H1658H1660V133H1658ZM1658 144V142H1636V144V146H1658V144ZM1636 144H1634V199H1636H1638V144H1636ZM1636 199V201H1658V199V197H1636V199ZM1658 199H1656V210H1658H1660V199H1658ZM1658 210V208H1592V210V212H1658V210ZM1680 210H1678V212H1680V210ZM1680 133V131H1678V133H1680ZM1702 133H1704V131H1702V133ZM1702 199H1700V201H1702V199ZM1746 199H1748V197H1746V199ZM1746 210V212H1748V210H1746ZM1680 210H1682V133H1680H1678V210H1680ZM1680 133V135H1702V133V131H1680V133ZM1702 133H1700V199H1702H1704V133H1702ZM1702 199V201H1746V199V197H1702V199ZM1746 199H1744V210H1746H1748V199H1746ZM1746 210V208H1680V210V212H1746V210ZM1757 210H1755V212H1757V210ZM1757 133V131H1755V133H1757ZM1812 133H1814V131H1812V133ZM1812 144H1810V146H1812V144ZM1823 144H1825V142H1823V144ZM1823 155H1821V157H1823V155ZM1834 155H1836V153H1834V155ZM1834 188V190H1836V188H1834ZM1823 188V186H1821V188H1823ZM1823 199V201H1825V199H1823ZM1812 199V197H1810V199H1812ZM1812 210V212H1814V210H1812ZM1779 199H1777V201H1779V199ZM1801 199V201H1803V199H1801ZM1801 188V186H1799V188H1801ZM1812 188V190H1814V188H1812ZM1812 155H1814V153H1812V155ZM1801 155H1799V157H1801V155ZM1801 144H1803V142H1801V144ZM1779 144V142H1777V144H1779ZM1757 210H1759V133H1757H1755V210H1757ZM1757 133V135H1812V133V131H1757V133ZM1812 133H1810V144H1812H1814V133H1812ZM1812 144V146H1823V144V142H1812V144ZM1823 144H1821V155H1823H1825V144H1823ZM1823 155V157H1834V155V153H1823V155ZM1834 155H1832V188H1834H1836V155H1834ZM1834 188V186H1823V188V190H1834V188ZM1823 188H1821V199H1823H1825V188H1823ZM1823 199V197H1812V199V201H1823V199ZM1812 199H1810V210H1812H1814V199H1812ZM1812 210V208H1757V210V212H1812V210ZM1779 199V201H1801V199V197H1779V199ZM1801 199H1803V188H1801H1799V199H1801ZM1801 188V190H1812V188V186H1801V188ZM1812 188H1814V155H1812H1810V188H1812ZM1812 155V153H1801V155V157H1812V155ZM1801 155H1803V144H1801H1799V155H1801ZM1801 144V142H1779V144V146H1801V144ZM1779 144H1777V199H1779H1781V144H1779Z" fill="white" mask="url(#path-9-outside-4_1_2)"/>
<path d="M-38 210V133H28V144H39V166H28V177H39V199H28V210H-38ZM-16 166H17V144H-16V166ZM-16 199H17V177H-16V199ZM61 210V199H50V133H72V199H105V133H127V199H116V210H61ZM149 210V199H171V144H149V133H215V144H193V199H215V210H149ZM237 210V133H259V199H303V210H237ZM314 210V133H369V144H380V155H391V188H380V199H369V210H314ZM336 199H358V188H369V155H358V144H336V199ZM490 210V133H567V144H512V166H556V177H512V210H490ZM589 210V199H578V144H589V133H644V144H655V199H644V210H589ZM600 199H633V144H600V199ZM666 210V133H732V144H743V177H721V188H732V199H743V210H710V199H699V188H688V210H666ZM688 177H710V166H721V144H688V177ZM842 210V133H908V144H919V166H908V177H919V199H908V210H842ZM864 166H897V144H864V166ZM864 199H897V177H864V199ZM930 210V133H1007V144H952V166H996V177H952V199H1007V210H930ZM1051 210V144H1029V133H1095V144H1073V210H1051ZM1139 210V144H1117V133H1183V144H1161V210H1139ZM1194 210V133H1271V144H1216V166H1260V177H1216V199H1271V210H1194ZM1282 210V133H1348V144H1359V177H1337V188H1348V199H1359V210H1326V199H1315V188H1304V210H1282ZM1304 177H1326V166H1337V144H1304V177Z" fill="white"/>
</g>
<defs>
<clipPath id="clip0_1_2">
<rect width="1728" height="221" fill="white"/>
</clipPath>
</defs>
</svg>
