<svg xmlns="http://www.w3.org/2000/svg" xmlns:xlink="http://www.w3.org/1999/xlink" width="1248" zoomAndPan="magnify" viewBox="0 0 936 1151.999944" height="1536" preserveAspectRatio="xMidYMid meet" version="1.0"><defs><g/></defs><rect x="-93.6" width="1123.2" fill="#ffffff" y="-115.199994" height="1382.399933" fill-opacity="1"/><rect x="-93.6" width="1123.2" fill="#ffffff" y="-115.199994" height="1382.399933" fill-opacity="1"/><g fill="#2a00bf" fill-opacity="1"><g transform="translate(29.444596, 664.83705)"><g><path d="M 54.3125 1.796875 C 36.800781 1.796875 24.15625 -2.539062 16.375 -11.21875 C 8.601562 -19.894531 4.71875 -33.882812 4.71875 -53.1875 L 4.71875 -72.046875 L 42.640625 -72.046875 L 42.640625 -48.03125 C 42.640625 -38.457031 45.707031 -33.671875 51.84375 -33.671875 C 55.28125 -33.671875 57.671875 -34.675781 59.015625 -36.6875 C 60.367188 -38.707031 61.046875 -42.113281 61.046875 -46.90625 C 61.046875 -53.1875 60.296875 -58.382812 58.796875 -62.5 C 57.304688 -66.613281 55.398438 -70.054688 53.078125 -72.828125 C 50.753906 -75.597656 46.601562 -79.898438 40.625 -85.734375 L 24.015625 -102.34375 C 11.148438 -114.914062 4.71875 -128.832031 4.71875 -144.09375 C 4.71875 -160.550781 8.492188 -173.082031 16.046875 -181.6875 C 23.597656 -190.289062 34.632812 -194.59375 49.15625 -194.59375 C 66.507812 -194.59375 79 -189.988281 86.625 -180.78125 C 94.257812 -171.582031 98.078125 -157.179688 98.078125 -137.578125 L 58.796875 -137.578125 L 58.578125 -150.828125 C 58.578125 -153.367188 57.863281 -155.382812 56.4375 -156.875 C 55.019531 -158.375 53.039062 -159.125 50.5 -159.125 C 47.507812 -159.125 45.265625 -158.300781 43.765625 -156.65625 C 42.265625 -155.007812 41.515625 -152.765625 41.515625 -149.921875 C 41.515625 -143.640625 45.109375 -137.128906 52.296875 -130.390625 L 74.734375 -108.859375 C 79.972656 -103.765625 84.3125 -98.9375 87.75 -94.375 C 91.195312 -89.8125 93.96875 -84.425781 96.0625 -78.21875 C 98.15625 -72.007812 99.203125 -64.640625 99.203125 -56.109375 C 99.203125 -37.109375 95.722656 -22.707031 88.765625 -12.90625 C 81.804688 -3.101562 70.320312 1.796875 54.3125 1.796875 Z M 54.3125 1.796875 "/></g></g></g><g fill="#2a00bf" fill-opacity="1"><g transform="translate(132.90709, 664.83705)"><g><path d="M 3.359375 0 L 22 -192.796875 L 87.3125 -192.796875 L 105.703125 0 L 69.125 0 L 66.4375 -31.203125 L 43.09375 -31.203125 L 40.84375 0 Z M 46.015625 -61.9375 L 63.515625 -61.9375 L 54.984375 -160.03125 L 53.1875 -160.03125 Z M 46.015625 -61.9375 "/></g></g></g><g fill="#2a00bf" fill-opacity="1"><g transform="translate(241.755922, 664.83705)"><g><path d="M 8.53125 0 L 8.53125 -192.796875 L 48.25 -192.796875 L 65.984375 -100.546875 L 65.984375 -192.796875 L 103.234375 -192.796875 L 103.234375 0 L 65.53125 0 L 46.234375 -96.515625 L 46.234375 0 Z M 8.53125 0 "/></g></g></g><g fill="#2a00bf" fill-opacity="1"><g transform="translate(353.522319, 664.83705)"><g><path d="M 8.53125 0 L 8.53125 -192.796875 L 46.6875 -192.796875 L 46.6875 -115.578125 L 64.640625 -192.796875 L 103.46875 -192.796875 L 81.921875 -104.59375 L 107.953125 0 L 68 0 L 46.90625 -93.359375 L 46.90625 0 Z M 8.53125 0 "/></g></g></g><g fill="#2a00bf" fill-opacity="1"><g transform="translate(459.453549, 664.83705)"><g><path d="M 8.53125 0 L 8.53125 -192.796875 L 85.734375 -192.796875 L 85.734375 -155.53125 L 47.8125 -155.53125 L 47.8125 -118.046875 L 84.15625 -118.046875 L 84.15625 -81.6875 L 47.8125 -81.6875 L 47.8125 -37.484375 L 88.203125 -37.484375 L 88.203125 0 Z M 8.53125 0 "/></g></g></g><g fill="#2a00bf" fill-opacity="1"><g transform="translate(551.918916, 664.83705)"><g><path d="M 25.140625 0 L 25.140625 -155.765625 L 2.25 -155.765625 L 2.25 -192.796875 L 86.640625 -192.796875 L 86.640625 -155.765625 L 63.734375 -155.765625 L 63.734375 0 Z M 25.140625 0 "/></g></g></g><g fill="#2a00bf" fill-opacity="1"><g transform="translate(640.793439, 664.83705)"><g><path d="M 6.734375 0 L 6.734375 -192.796875 L 43.984375 -192.796875 L 43.984375 0 Z M 6.734375 0 "/></g></g></g><g fill="#2a00bf" fill-opacity="1"><g transform="translate(691.739181, 664.83705)"><g><path d="M 8.53125 0 L 8.53125 -192.796875 L 46.6875 -192.796875 L 46.6875 -115.578125 L 64.640625 -192.796875 L 103.46875 -192.796875 L 81.921875 -104.59375 L 107.953125 0 L 68 0 L 46.90625 -93.359375 L 46.90625 0 Z M 8.53125 0 "/></g></g></g><g fill="#2a00bf" fill-opacity="1"><g transform="translate(797.670411, 664.83705)"><g><path d="M 3.359375 0 L 22 -192.796875 L 87.3125 -192.796875 L 105.703125 0 L 69.125 0 L 66.4375 -31.203125 L 43.09375 -31.203125 L 40.84375 0 Z M 46.015625 -61.9375 L 63.515625 -61.9375 L 54.984375 -160.03125 L 53.1875 -160.03125 Z M 46.015625 -61.9375 "/></g></g></g><g fill="#ed7cf0" fill-opacity="1"><g transform="translate(378.590145, 709.359588)"><g><path d="M 25.4375 0.265625 C 23.257812 0.265625 21.320312 -0.0703125 19.625 -0.75 C 17.925781 -1.425781 16.414062 -2.203125 15.09375 -3.078125 C 13.769531 -3.960938 12.578125 -4.738281 11.515625 -5.40625 C 10.460938 -6.082031 9.441406 -6.421875 8.453125 -6.421875 C 7.679688 -6.421875 7.09375 -6.1875 6.6875 -5.71875 C 6.28125 -5.25 6.078125 -4.691406 6.078125 -4.046875 C 6.078125 -3.109375 5.753906 -2.195312 5.109375 -1.3125 C 4.460938 -0.4375 3.375 0 1.84375 0 C 0.726562 0 -0.265625 -0.363281 -1.140625 -1.09375 C -2.023438 -1.832031 -2.46875 -3.171875 -2.46875 -5.109375 C -2.46875 -6.398438 -2.1875 -8.007812 -1.625 -9.9375 C -1.070312 -11.875 -0.00390625 -13.910156 1.578125 -16.046875 C 3.160156 -18.191406 5.476562 -20.144531 8.53125 -21.90625 C 13.8125 -25.019531 18.140625 -27.765625 21.515625 -30.140625 C 24.890625 -32.515625 27.367188 -34.757812 28.953125 -36.875 C 30.535156 -38.988281 31.328125 -41.128906 31.328125 -43.296875 C 31.328125 -44.878906 30.898438 -46.210938 30.046875 -47.296875 C 29.203125 -48.378906 27.835938 -48.921875 25.953125 -48.921875 C 24.191406 -48.921875 22.59375 -48.421875 21.15625 -47.421875 C 19.726562 -46.429688 18.75 -45.171875 18.21875 -43.640625 C 17.863281 -42.648438 17.378906 -41.90625 16.765625 -41.40625 C 16.148438 -40.90625 15.519531 -40.65625 14.875 -40.65625 C 13.875 -40.65625 12.992188 -41.210938 12.234375 -42.328125 C 11.472656 -43.441406 11.382812 -45.347656 11.96875 -48.046875 C 12.789062 -51.453125 14.109375 -54.472656 15.921875 -57.109375 C 17.742188 -59.753906 20.019531 -61.835938 22.75 -63.359375 C 25.476562 -64.878906 28.570312 -65.640625 32.03125 -65.640625 C 36.78125 -65.640625 40.617188 -64.304688 43.546875 -61.640625 C 46.484375 -58.972656 47.953125 -55.265625 47.953125 -50.515625 C 47.953125 -46.929688 47.128906 -43.703125 45.484375 -40.828125 C 43.847656 -37.953125 41.753906 -35.382812 39.203125 -33.125 C 36.648438 -30.875 33.9375 -28.851562 31.0625 -27.0625 C 28.1875 -25.269531 25.472656 -23.671875 22.921875 -22.265625 C 20.367188 -20.859375 18.332031 -19.566406 16.8125 -18.390625 C 16.21875 -17.921875 15.9375 -17.390625 15.96875 -16.796875 C 16 -16.210938 16.234375 -15.800781 16.671875 -15.5625 C 17.117188 -15.332031 17.632812 -15.515625 18.21875 -16.109375 C 19.332031 -17.273438 20.59375 -18.238281 22 -19 C 23.40625 -19.769531 25.109375 -20.15625 27.109375 -20.15625 C 28.867188 -20.15625 30.316406 -19.929688 31.453125 -19.484375 C 32.597656 -19.046875 33.582031 -18.679688 34.40625 -18.390625 C 35.226562 -18.097656 35.988281 -18.097656 36.6875 -18.390625 C 37.394531 -18.679688 38.21875 -19.53125 39.15625 -20.9375 C 39.507812 -21.46875 39.976562 -21.75 40.5625 -21.78125 C 41.15625 -21.8125 41.671875 -21.632812 42.109375 -21.25 C 42.546875 -20.875 42.648438 -20.332031 42.421875 -19.625 C 40.421875 -12.289062 38.023438 -7.140625 35.234375 -4.171875 C 32.453125 -1.210938 29.1875 0.265625 25.4375 0.265625 Z M 25.4375 0.265625 "/></g></g></g><g fill="#ed7cf0" fill-opacity="1"><g transform="translate(422.588199, 709.359588)"><g><path d="M 19.890625 -0.265625 C 16.304688 -0.265625 13.367188 -1.21875 11.078125 -3.125 C 8.796875 -5.03125 7.113281 -7.59375 6.03125 -10.8125 C 4.945312 -14.039062 4.40625 -17.648438 4.40625 -21.640625 C 4.40625 -25.398438 4.875 -29.316406 5.8125 -33.390625 C 6.75 -37.472656 8.109375 -41.421875 9.890625 -45.234375 C 11.679688 -49.046875 13.851562 -52.488281 16.40625 -55.5625 C 18.957031 -58.644531 21.832031 -61.09375 25.03125 -62.90625 C 28.226562 -64.726562 31.707031 -65.640625 35.46875 -65.640625 C 38.925781 -65.640625 41.722656 -64.71875 43.859375 -62.875 C 46.003906 -61.03125 47.585938 -58.550781 48.609375 -55.4375 C 49.640625 -52.332031 50.15625 -48.8125 50.15625 -44.875 C 50.15625 -41.1875 49.671875 -37.285156 48.703125 -33.171875 C 47.734375 -29.066406 46.335938 -25.078125 44.515625 -21.203125 C 42.703125 -17.335938 40.546875 -13.816406 38.046875 -10.640625 C 35.554688 -7.472656 32.769531 -4.953125 29.6875 -3.078125 C 26.613281 -1.203125 23.347656 -0.265625 19.890625 -0.265625 Z M 24.8125 -20.765625 C 26.988281 -20.765625 29.015625 -21.628906 30.890625 -23.359375 C 32.765625 -25.085938 34.273438 -27.34375 35.421875 -30.125 C 36.566406 -32.914062 37.078125 -35.898438 36.953125 -39.078125 C 36.785156 -44.941406 34.617188 -47.875 30.453125 -47.875 C 28.566406 -47.875 26.847656 -47.316406 25.296875 -46.203125 C 23.742188 -45.085938 22.425781 -43.632812 21.34375 -41.84375 C 20.257812 -40.050781 19.421875 -38.082031 18.828125 -35.9375 C 18.242188 -33.800781 17.984375 -31.707031 18.046875 -29.65625 C 18.160156 -27.019531 18.785156 -24.878906 19.921875 -23.234375 C 21.066406 -21.585938 22.695312 -20.765625 24.8125 -20.765625 Z M 24.8125 -20.765625 "/></g></g></g><g fill="#ed7cf0" fill-opacity="1"><g transform="translate(469.226142, 709.359588)"><g><path d="M 25.4375 0.265625 C 23.257812 0.265625 21.320312 -0.0703125 19.625 -0.75 C 17.925781 -1.425781 16.414062 -2.203125 15.09375 -3.078125 C 13.769531 -3.960938 12.578125 -4.738281 11.515625 -5.40625 C 10.460938 -6.082031 9.441406 -6.421875 8.453125 -6.421875 C 7.679688 -6.421875 7.09375 -6.1875 6.6875 -5.71875 C 6.28125 -5.25 6.078125 -4.691406 6.078125 -4.046875 C 6.078125 -3.109375 5.753906 -2.195312 5.109375 -1.3125 C 4.460938 -0.4375 3.375 0 1.84375 0 C 0.726562 0 -0.265625 -0.363281 -1.140625 -1.09375 C -2.023438 -1.832031 -2.46875 -3.171875 -2.46875 -5.109375 C -2.46875 -6.398438 -2.1875 -8.007812 -1.625 -9.9375 C -1.070312 -11.875 -0.00390625 -13.910156 1.578125 -16.046875 C 3.160156 -18.191406 5.476562 -20.144531 8.53125 -21.90625 C 13.8125 -25.019531 18.140625 -27.765625 21.515625 -30.140625 C 24.890625 -32.515625 27.367188 -34.757812 28.953125 -36.875 C 30.535156 -38.988281 31.328125 -41.128906 31.328125 -43.296875 C 31.328125 -44.878906 30.898438 -46.210938 30.046875 -47.296875 C 29.203125 -48.378906 27.835938 -48.921875 25.953125 -48.921875 C 24.191406 -48.921875 22.59375 -48.421875 21.15625 -47.421875 C 19.726562 -46.429688 18.75 -45.171875 18.21875 -43.640625 C 17.863281 -42.648438 17.378906 -41.90625 16.765625 -41.40625 C 16.148438 -40.90625 15.519531 -40.65625 14.875 -40.65625 C 13.875 -40.65625 12.992188 -41.210938 12.234375 -42.328125 C 11.472656 -43.441406 11.382812 -45.347656 11.96875 -48.046875 C 12.789062 -51.453125 14.109375 -54.472656 15.921875 -57.109375 C 17.742188 -59.753906 20.019531 -61.835938 22.75 -63.359375 C 25.476562 -64.878906 28.570312 -65.640625 32.03125 -65.640625 C 36.78125 -65.640625 40.617188 -64.304688 43.546875 -61.640625 C 46.484375 -58.972656 47.953125 -55.265625 47.953125 -50.515625 C 47.953125 -46.929688 47.128906 -43.703125 45.484375 -40.828125 C 43.847656 -37.953125 41.753906 -35.382812 39.203125 -33.125 C 36.648438 -30.875 33.9375 -28.851562 31.0625 -27.0625 C 28.1875 -25.269531 25.472656 -23.671875 22.921875 -22.265625 C 20.367188 -20.859375 18.332031 -19.566406 16.8125 -18.390625 C 16.21875 -17.921875 15.9375 -17.390625 15.96875 -16.796875 C 16 -16.210938 16.234375 -15.800781 16.671875 -15.5625 C 17.117188 -15.332031 17.632812 -15.515625 18.21875 -16.109375 C 19.332031 -17.273438 20.59375 -18.238281 22 -19 C 23.40625 -19.769531 25.109375 -20.15625 27.109375 -20.15625 C 28.867188 -20.15625 30.316406 -19.929688 31.453125 -19.484375 C 32.597656 -19.046875 33.582031 -18.679688 34.40625 -18.390625 C 35.226562 -18.097656 35.988281 -18.097656 36.6875 -18.390625 C 37.394531 -18.679688 38.21875 -19.53125 39.15625 -20.9375 C 39.507812 -21.46875 39.976562 -21.75 40.5625 -21.78125 C 41.15625 -21.8125 41.671875 -21.632812 42.109375 -21.25 C 42.546875 -20.875 42.648438 -20.332031 42.421875 -19.625 C 40.421875 -12.289062 38.023438 -7.140625 35.234375 -4.171875 C 32.453125 -1.210938 29.1875 0.265625 25.4375 0.265625 Z M 25.4375 0.265625 "/></g></g></g><g fill="#ed7cf0" fill-opacity="1"><g transform="translate(513.224196, 709.359588)"><g><path d="M 52.796875 -65.5625 C 53.085938 -65.675781 53.347656 -65.613281 53.578125 -65.375 C 53.816406 -65.144531 53.878906 -64.914062 53.765625 -64.6875 C 53.066406 -62.6875 52.347656 -60.644531 51.609375 -58.5625 C 50.878906 -56.476562 49.984375 -54.554688 48.921875 -52.796875 C 47.867188 -51.035156 46.535156 -49.613281 44.921875 -48.53125 C 43.304688 -47.445312 41.207031 -46.90625 38.625 -46.90625 C 37.164062 -46.90625 35.847656 -47.125 34.671875 -47.5625 C 33.492188 -48 32.347656 -48.453125 31.234375 -48.921875 C 30.117188 -49.390625 28.859375 -49.625 27.453125 -49.625 C 25.984375 -49.570312 24.851562 -49.160156 24.0625 -48.390625 C 23.269531 -47.628906 22.613281 -46.578125 22.09375 -45.234375 L 19.890625 -39.515625 C 21.054688 -39.984375 22.328125 -40.332031 23.703125 -40.5625 C 25.085938 -40.800781 26.515625 -40.921875 27.984375 -40.921875 C 31.503906 -40.921875 34.40625 -40.140625 36.6875 -38.578125 C 38.976562 -37.023438 40.679688 -34.972656 41.796875 -32.421875 C 42.910156 -29.867188 43.46875 -27.097656 43.46875 -24.109375 C 43.46875 -21.296875 42.96875 -18.453125 41.96875 -15.578125 C 40.976562 -12.703125 39.484375 -10.078125 37.484375 -7.703125 C 35.492188 -5.328125 33.0625 -3.421875 30.1875 -1.984375 C 27.3125 -0.546875 23.96875 0.171875 20.15625 0.171875 C 15.8125 0.171875 12.300781 -0.585938 9.625 -2.109375 C 6.957031 -3.640625 5.023438 -5.578125 3.828125 -7.921875 C 2.628906 -10.265625 2.03125 -12.695312 2.03125 -15.21875 C 2.03125 -17.570312 2.46875 -19.773438 3.34375 -21.828125 C 4.21875 -23.878906 5.414062 -25.550781 6.9375 -26.84375 C 8.46875 -28.132812 10.175781 -28.78125 12.0625 -28.78125 C 13.757812 -28.78125 14.609375 -28.191406 14.609375 -27.015625 C 14.609375 -26.609375 14.503906 -26.125 14.296875 -25.5625 C 14.085938 -25.007812 13.984375 -24.234375 13.984375 -23.234375 C 13.984375 -21.703125 14.582031 -20.484375 15.78125 -19.578125 C 16.988281 -18.671875 18.648438 -18.21875 20.765625 -18.21875 C 23.285156 -18.21875 25.378906 -19.125 27.046875 -20.9375 C 28.722656 -22.757812 29.5625 -24.929688 29.5625 -27.453125 C 29.5625 -29.566406 29.003906 -31.253906 27.890625 -32.515625 C 26.773438 -33.773438 25.3125 -34.40625 23.5 -34.40625 C 21.625 -34.40625 20.007812 -34.15625 18.65625 -33.65625 C 17.300781 -33.15625 16.097656 -32.4375 15.046875 -31.5 C 14.578125 -31.03125 13.859375 -30.898438 12.890625 -31.109375 C 11.921875 -31.316406 11.113281 -31.828125 10.46875 -32.640625 C 9.820312 -33.460938 9.734375 -34.492188 10.203125 -35.734375 L 19.796875 -61.859375 C 20.554688 -64.035156 22.929688 -65.125 26.921875 -65.125 C 29.796875 -65.175781 32.832031 -65.070312 36.03125 -64.8125 C 39.226562 -64.550781 42.304688 -64.421875 45.265625 -64.421875 C 48.234375 -64.421875 50.742188 -64.800781 52.796875 -65.5625 Z M 52.796875 -65.5625 "/></g></g></g></svg>