<svg width="1293" height="165" viewBox="0 0 1293 165" fill="none" xmlns="http://www.w3.org/2000/svg">
<path opacity="0.7" d="M71.3715 6.59999C90.9075 6.59999 106.966 10.596 119.546 18.588C132.126 26.432 138.564 38.124 138.86 53.664V56.328H92.9055V55.44C92.9055 51 91.2775 47.3 88.0215 44.34C84.7655 41.38 79.8075 39.9 73.1475 39.9C66.6355 39.9 61.6035 40.862 58.0515 42.786C54.6475 44.71 52.9455 47.078 52.9455 49.89C52.9455 53.886 55.3135 56.846 60.0495 58.77C64.7855 60.694 72.4075 62.692 82.9155 64.764C95.1995 67.28 105.264 69.944 113.108 72.756C121.1 75.42 128.056 79.86 133.976 86.076C139.896 92.292 142.93 100.728 143.078 111.384C143.078 129.44 136.936 142.834 124.652 151.566C112.516 160.298 96.2355 164.664 75.8115 164.664C51.9835 164.664 33.4095 160.668 20.0895 152.676C6.91752 144.684 0.331523 130.55 0.331523 110.274H46.7295C46.7295 117.97 48.7275 123.15 52.7235 125.814C56.7195 128.33 62.9355 129.588 71.3715 129.588C77.5875 129.588 82.6935 128.922 86.6895 127.59C90.8335 126.258 92.9055 123.52 92.9055 119.376C92.9055 115.676 90.6115 112.938 86.0235 111.162C81.5835 109.238 74.2575 107.24 64.0455 105.168C51.6135 102.504 41.3275 99.766 33.1875 96.954C25.0475 93.994 17.9435 89.184 11.8755 82.524C5.80752 75.864 2.77352 66.836 2.77352 55.44C2.77352 38.716 9.21152 26.432 22.0875 18.588C35.1115 10.596 51.5395 6.59999 71.3715 6.59999ZM233.36 42.12C251.268 42.12 265.846 45.154 277.094 51.222C288.342 57.142 293.966 66.836 293.966 80.304V126.036C293.966 128.552 294.558 130.624 295.742 132.252C296.926 133.88 298.702 134.694 301.07 134.694H309.062V160.224C308.618 160.52 307.434 161.038 305.51 161.778C303.734 162.37 301.144 162.962 297.74 163.554C294.336 164.294 290.414 164.664 285.974 164.664C277.39 164.664 270.286 163.406 264.662 160.89C259.186 158.226 255.412 154.6 253.34 150.012C247.716 154.452 241.426 158.004 234.47 160.668C227.514 163.332 219.374 164.664 210.05 164.664C182.522 164.664 168.758 153.712 168.758 131.808C168.758 120.412 171.792 111.754 177.86 105.834C184.076 99.766 192.956 95.622 204.5 93.402C216.044 91.182 231.14 90.072 249.788 90.072V84.3C249.788 79.712 248.16 76.234 244.904 73.866C241.796 71.498 237.726 70.314 232.694 70.314C228.106 70.314 224.11 71.128 220.706 72.756C217.45 74.384 215.822 76.974 215.822 80.526V81.414H172.31C172.162 80.674 172.088 79.638 172.088 78.306C172.088 67.206 177.342 58.4 187.85 51.888C198.506 45.376 213.676 42.12 233.36 42.12ZM249.788 110.94C237.208 110.94 227.884 112.346 221.816 115.158C215.896 117.822 212.936 121.448 212.936 126.036C212.936 133.436 217.968 137.136 228.032 137.136C233.804 137.136 238.836 135.582 243.128 132.474C247.568 129.366 249.788 125.518 249.788 120.93V110.94ZM415.399 42.12C429.015 42.12 439.227 45.894 446.035 53.442C452.843 60.99 456.247 71.868 456.247 86.076V162H412.069V91.404C412.069 86.372 410.737 82.376 408.073 79.416C405.557 76.308 401.931 74.754 397.195 74.754C391.719 74.754 387.279 76.53 383.875 80.082C380.471 83.634 378.769 88 378.769 93.18V162H334.591V44.784H370.777L373.663 62.544C378.251 56.328 384.245 51.37 391.645 47.67C399.193 43.97 407.111 42.12 415.399 42.12ZM575.459 44.784H626.963L583.673 92.07L628.073 162H577.901L553.259 121.818L537.941 136.692V162H493.763V0.827998H537.941V89.628L575.459 44.784ZM705.953 42.12C727.413 42.12 743.767 47.152 755.015 57.216C766.411 67.28 772.109 82.672 772.109 103.392V110.94H684.197C684.197 119.376 686.047 125.74 689.747 130.032C693.595 134.324 699.589 136.47 707.729 136.47C715.129 136.47 720.531 134.916 723.935 131.808C727.487 128.7 729.263 124.556 729.263 119.376H772.109C772.109 133.584 766.707 144.684 755.903 152.676C745.099 160.668 729.337 164.664 708.617 164.664C686.861 164.664 669.989 159.632 658.001 149.568C646.013 139.356 640.019 123.964 640.019 103.392C640.019 83.264 645.865 68.02 657.557 57.66C669.249 47.3 685.381 42.12 705.953 42.12ZM707.729 70.314C693.817 70.314 686.047 76.9 684.419 90.072H727.487C727.487 84.004 725.711 79.194 722.159 75.642C718.755 72.09 713.945 70.314 707.729 70.314ZM882.664 44.784V74.754H857.8V119.376C857.8 124.704 858.688 128.626 860.464 131.142C862.24 133.51 865.496 134.694 870.232 134.694H882.664V160.668C879.112 161.852 874.524 162.814 868.9 163.554C863.276 164.294 858.392 164.664 854.248 164.664C841.224 164.664 831.16 162.296 824.056 157.56C817.1 152.824 813.622 144.758 813.622 133.362V74.754H797.194V44.784H815.398L824.944 9.26399H857.8V44.784H882.664ZM915.816 31.02V1.04999H959.994V31.02H915.816ZM915.816 162V44.784H959.994V162H915.816ZM1080.99 44.784H1132.49L1089.2 92.07L1133.6 162H1083.43L1058.79 121.818L1043.47 136.692V162H999.29V0.827998H1043.47V89.628L1080.99 44.784ZM1216.4 42.12C1234.31 42.12 1248.89 45.154 1260.14 51.222C1271.39 57.142 1277.01 66.836 1277.01 80.304V126.036C1277.01 128.552 1277.6 130.624 1278.79 132.252C1279.97 133.88 1281.75 134.694 1284.11 134.694H1292.11V160.224C1291.66 160.52 1290.48 161.038 1288.55 161.778C1286.78 162.37 1284.19 162.962 1280.78 163.554C1277.38 164.294 1273.46 164.664 1269.02 164.664C1260.43 164.664 1253.33 163.406 1247.71 160.89C1242.23 158.226 1238.46 154.6 1236.38 150.012C1230.76 154.452 1224.47 158.004 1217.51 160.668C1210.56 163.332 1202.42 164.664 1193.09 164.664C1165.57 164.664 1151.8 153.712 1151.8 131.808C1151.8 120.412 1154.84 111.754 1160.9 105.834C1167.12 99.766 1176 95.622 1187.54 93.402C1199.09 91.182 1214.18 90.072 1232.83 90.072V84.3C1232.83 79.712 1231.2 76.234 1227.95 73.866C1224.84 71.498 1220.77 70.314 1215.74 70.314C1211.15 70.314 1207.15 71.128 1203.75 72.756C1200.49 74.384 1198.87 76.974 1198.87 80.526V81.414H1155.35C1155.21 80.674 1155.13 79.638 1155.13 78.306C1155.13 67.206 1160.39 58.4 1170.89 51.888C1181.55 45.376 1196.72 42.12 1216.4 42.12ZM1232.83 110.94C1220.25 110.94 1210.93 112.346 1204.86 115.158C1198.94 117.822 1195.98 121.448 1195.98 126.036C1195.98 133.436 1201.01 137.136 1211.08 137.136C1216.85 137.136 1221.88 135.582 1226.17 132.474C1230.61 129.366 1232.83 125.518 1232.83 120.93V110.94Z" fill="black"/>
</svg>
