<svg width="1272" height="180" viewBox="0 0 1272 180" fill="none" xmlns="http://www.w3.org/2000/svg">
<path opacity="0.42" d="M72.3785 179.108C58.1705 179.108 44.7025 177.924 31.9745 175.556C19.3945 173.04 9.70053 170.228 2.89253 167.12V123.164H51.7325C51.7325 127.752 52.7685 131.082 54.8405 133.154C56.9125 135.226 60.6865 136.262 66.1625 136.262C70.7505 136.262 74.0065 135.596 75.9305 134.264C78.0025 132.784 79.0385 130.638 79.0385 127.826C79.0385 125.458 78.0765 123.46 76.1525 121.832C74.2285 120.056 70.8985 118.28 66.1625 116.504L47.0705 109.844C30.6425 103.628 18.8025 96.302 11.5505 87.866C4.44653 79.43 0.89453 68.034 0.89453 53.678C0.89453 36.214 6.59253 22.968 17.9885 13.94C29.5325 4.76399 48.6985 0.175988 75.4865 0.175988C88.3625 0.175988 100.425 1.50799 111.673 4.17199C123.069 6.68799 132.245 10.092 139.201 14.384V54.122H94.8005C94.8005 46.722 90.2125 43.022 81.0365 43.022C76.5965 43.022 73.4145 43.614 71.4905 44.798C69.7145 45.834 68.8265 47.758 68.8265 50.57C68.8265 53.086 69.8625 55.084 71.9345 56.564C74.1545 58.044 77.7065 59.598 82.5905 61.226L101.905 67.886C117.593 73.214 128.989 80.17 136.093 88.754C143.345 97.19 146.971 108.29 146.971 122.054C146.971 140.85 140.607 155.058 127.879 164.678C115.299 174.298 96.7985 179.108 72.3785 179.108ZM293.23 139.592V176H234.622V160.904C231.366 165.64 226.778 169.858 220.858 173.558C215.086 177.258 207.982 179.108 199.546 179.108C188.446 179.108 179.714 176.148 173.35 170.228C166.986 164.308 163.804 155.946 163.804 145.142C163.804 117.17 187.558 102.814 235.066 102.074C234.622 97.042 232.698 93.638 229.294 91.862C225.89 89.938 220.118 88.976 211.978 88.976C205.318 88.976 198.14 89.716 190.444 91.196C182.896 92.528 175.94 94.378 169.576 96.746V55.898C177.42 53.974 185.93 52.42 195.106 51.236C204.282 50.052 213.236 49.46 221.968 49.46C244.02 49.46 259.782 53.456 269.254 61.448C278.726 69.44 283.462 81.798 283.462 98.522V139.592H293.23ZM234.622 124.052C227.962 124.052 222.782 124.94 219.082 126.716C215.53 128.492 213.754 131.452 213.754 135.596C213.754 138.112 214.494 140.184 215.974 141.812C217.602 143.292 219.822 144.032 222.634 144.032C226.482 144.032 229.442 142.404 231.514 139.148C233.586 135.892 234.622 131.304 234.622 125.384V124.052ZM458.894 139.592V176H388.742V139.592H398.066V103.184C398.066 98.3 397.03 94.748 394.958 92.528C392.886 90.16 389.778 88.976 385.634 88.976C376.754 88.976 372.314 93.712 372.314 103.184V139.592H381.638V176H311.486V139.592H321.254V88.976H311.486V52.568H372.314V69.884C382.97 56.268 396.29 49.46 412.274 49.46C424.558 49.46 433.734 53.308 439.802 61.004C446.018 68.7 449.126 79.282 449.126 92.75V139.592H458.894ZM611.029 139.592H620.575V176H566.185L543.319 133.376H537.991V176H477.163V139.592H486.931V39.692H477.163V3.28399H537.991V93.416H543.319L570.847 52.568H617.689V88.976H608.587L589.717 110.066L611.029 139.592ZM704.876 179.108C683.86 179.108 667.432 173.632 655.592 162.68C643.752 151.58 637.832 135.448 637.832 114.284C637.832 93.12 643.752 77.062 655.592 66.11C667.432 55.01 683.86 49.46 704.876 49.46C725.744 49.46 740.766 54.936 749.942 65.888C759.266 76.692 763.928 90.16 763.928 106.292V122.276H692V123.608C692 129.084 693.628 133.154 696.884 135.818C700.14 138.334 705.542 139.592 713.09 139.592C722.118 139.592 730.702 138.926 738.842 137.594C746.982 136.262 754.086 134.56 760.154 132.488V168.008C754.974 170.82 747.352 173.41 737.288 175.778C727.372 177.998 716.568 179.108 704.876 179.108ZM717.752 97.856V95.192C717.752 90.16 716.642 86.534 714.422 84.314C712.35 82.094 709.168 80.984 704.876 80.984C700.584 80.984 697.328 82.168 695.108 84.536C693.036 86.756 692 90.308 692 95.192V97.856H717.752ZM836.466 179.108C820.778 179.108 808.938 175.334 800.946 167.786C793.102 160.09 789.18 147.214 789.18 129.158V88.976H779.412V52.568C785.036 52.568 789.254 51.162 792.066 48.35C794.878 45.39 796.284 41.394 796.284 36.362V26.372H843.348V52.568H873.318V88.976H843.348V125.384C843.348 130.268 844.384 133.894 846.456 136.262C848.676 138.482 851.932 139.592 856.224 139.592C861.848 139.592 867.99 138.926 874.65 137.594V172.448C870.506 174.076 864.882 175.556 857.778 176.888C850.822 178.368 843.718 179.108 836.466 179.108ZM903.548 40.358V3.28399H948.836V40.358H903.548ZM892.892 176V139.592H902.66V88.976H892.892V52.568H953.72V139.592H963.488V176H892.892ZM1114.6 139.592H1124.15V176H1069.76L1046.89 133.376H1041.57V176H980.738V139.592H990.506V39.692H980.738V3.28399H1041.57V93.416H1046.89L1074.42 52.568H1121.26V88.976H1112.16L1093.29 110.066L1114.6 139.592ZM1271.72 139.592V176H1213.11V160.904C1209.86 165.64 1205.27 169.858 1199.35 173.558C1193.58 177.258 1186.47 179.108 1178.04 179.108C1166.94 179.108 1158.21 176.148 1151.84 170.228C1145.48 164.308 1142.3 155.946 1142.3 145.142C1142.3 117.17 1166.05 102.814 1213.56 102.074C1213.11 97.042 1211.19 93.638 1207.79 91.862C1204.38 89.938 1198.61 88.976 1190.47 88.976C1183.81 88.976 1176.63 89.716 1168.94 91.196C1161.39 92.528 1154.43 94.378 1148.07 96.746V55.898C1155.91 53.974 1164.42 52.42 1173.6 51.236C1182.77 50.052 1191.73 49.46 1200.46 49.46C1222.51 49.46 1238.27 53.456 1247.75 61.448C1257.22 69.44 1261.95 81.798 1261.95 98.522V139.592H1271.72ZM1213.11 124.052C1206.45 124.052 1201.27 124.94 1197.57 126.716C1194.02 128.492 1192.25 131.452 1192.25 135.596C1192.25 138.112 1192.99 140.184 1194.47 141.812C1196.09 143.292 1198.31 144.032 1201.13 144.032C1204.97 144.032 1207.93 142.404 1210.01 139.148C1212.08 135.892 1213.11 131.304 1213.11 125.384V124.052Z" fill="white" fill-opacity="0.25"/>
</svg>
